<svg xmlns="http://www.w3.org/2000/svg" width="388.974" height="346.398" viewBox="0 0 388.974 346.398"><g transform="translate(-175.7 -78)"><path d="M564.674,251.239c0-25.768-32.269-50.188-81.743-65.331,11.417-50.425,6.343-90.544-16.016-103.388a34.761,34.761,0,0,0-17.76-4.44V95.76a18.36,18.36,0,0,1,9.039,2.061c10.783,6.184,15.461,29.732,11.814,60.019-.872,7.453-2.3,15.3-4.044,23.31a384.232,384.232,0,0,0-50.346-8.642,386.753,386.753,0,0,0-32.983-39.643c25.847-24.023,50.108-37.185,66.6-37.185V78c-21.8,0-50.346,15.54-79.206,42.5-28.86-26.8-57.4-42.18-79.206-42.18V96c16.412,0,40.753,13.082,66.6,36.947a374.479,374.479,0,0,0-32.745,39.563,370.242,370.242,0,0,0-50.426,8.721c-1.824-7.929-3.171-15.619-4.123-22.993C266.4,127.95,271,104.4,281.7,98.138a17.645,17.645,0,0,1,9.118-2.061V78.4a35.352,35.352,0,0,0-17.918,4.44c-22.279,12.844-27.274,52.883-15.778,103.15C207.811,201.209,175.7,225.55,175.7,251.239c0,25.768,32.269,50.188,81.743,65.331C246.026,367,251.1,407.113,273.459,419.958A34.853,34.853,0,0,0,291.3,424.4c21.8,0,50.346-15.54,79.206-42.5,28.86,26.8,57.4,42.18,79.206,42.18a35.352,35.352,0,0,0,17.918-4.44c22.279-12.844,27.274-52.883,15.778-103.15,49.157-15.144,81.267-39.563,81.267-65.252ZM461.444,198.355c-2.934,10.228-6.581,20.773-10.7,31.318-3.251-6.343-6.66-12.686-10.386-19.029-3.647-6.343-7.532-12.527-11.417-18.553C440.2,193.757,451.058,195.818,461.444,198.355Zm-36.313,84.439c-6.184,10.7-12.527,20.852-19.108,30.287-11.813,1.031-23.786,1.586-35.837,1.586-11.972,0-23.944-.555-35.678-1.506q-9.871-14.152-19.187-30.128-9.039-15.58-16.491-31.556c4.916-10.624,10.466-21.248,16.412-31.635,6.184-10.7,12.527-20.852,19.108-30.287,11.814-1.031,23.786-1.586,35.837-1.586,11.972,0,23.944.555,35.678,1.506q9.871,14.152,19.187,30.128,9.038,15.58,16.491,31.556C436.549,261.783,431.078,272.408,425.132,282.794Zm25.609-10.307c4.281,10.624,7.929,21.248,10.941,31.556-10.386,2.537-21.328,4.678-32.666,6.343,3.885-6.1,7.77-12.368,11.417-18.791,3.647-6.343,7.056-12.765,10.307-19.108Zm-80.4,84.6A326.862,326.862,0,0,1,348.3,331.713c7.136.317,14.43.555,21.8.555,7.453,0,14.826-.159,22.041-.555A309.48,309.48,0,0,1,370.346,357.084Zm-58.988-46.7c-11.259-1.665-22.121-3.726-32.507-6.264,2.934-10.228,6.581-20.773,10.7-31.318,3.251,6.343,6.66,12.686,10.386,19.028S307.472,304.36,311.357,310.385Zm58.592-164.993a326.863,326.863,0,0,1,22.041,25.371c-7.136-.317-14.43-.555-21.8-.555-7.453,0-14.826.159-22.041.555A309.469,309.469,0,0,1,369.949,145.393Zm-58.671,46.7c-3.885,6.1-7.77,12.369-11.417,18.791-3.647,6.343-7.056,12.686-10.307,19.028-4.281-10.624-7.929-21.248-10.941-31.556,10.386-2.458,21.328-4.6,32.666-6.264Zm-71.753,99.265c-28.067-11.972-46.223-27.671-46.223-40.118s18.156-28.226,46.223-40.118c6.819-2.934,14.271-5.55,21.962-8.008A380.8,380.8,0,0,0,279.326,251.4a375.427,375.427,0,0,0-17.6,48.047c-7.849-2.458-15.3-5.154-22.2-8.087Zm42.655,113.3c-10.783-6.184-15.461-29.732-11.814-60.019.872-7.453,2.3-15.3,4.044-23.31a384.242,384.242,0,0,0,50.346,8.642,386.76,386.76,0,0,0,32.983,39.643c-25.847,24.023-50.108,37.185-66.6,37.185a18.922,18.922,0,0,1-8.959-2.141ZM470.245,344.24c3.726,30.287-.872,53.835-11.576,60.1a17.646,17.646,0,0,1-9.118,2.061c-16.412,0-40.753-13.082-66.6-36.947A374.472,374.472,0,0,0,415.7,329.89a370.246,370.246,0,0,0,50.425-8.721A221.957,221.957,0,0,1,470.245,344.24Zm30.525-52.883c-6.819,2.934-14.271,5.55-21.962,8.008a380.791,380.791,0,0,0-17.839-48.285,375.427,375.427,0,0,0,17.6-48.047c7.849,2.458,15.3,5.154,22.279,8.087,28.067,11.972,46.223,27.671,46.223,40.118-.079,12.448-18.236,28.226-46.3,40.118ZM290.743,78.317Z" transform="translate(0)" fill="#d571ff"/><circle cx="36.233" cy="36.233" r="36.233" transform="translate(333.874 215.005)" fill="#d571ff"/><path d="M520.5,78.1Z" transform="translate(-71.424 -0.021)" fill="#d571ff"/></g></svg>